<?xml version="1.0" encoding="utf-8"?>
<!-- Generator: Adobe Illustrator 24.1.0, SVG Export Plug-In . SVG Version: 6.00 Build 0)  -->
<svg version="1.1" id="Layer_1" xmlns="http://www.w3.org/2000/svg" xmlns:xlink="http://www.w3.org/1999/xlink" x="0px" y="0px"
	 viewBox="0 0 494 344" style="enable-background:new 0 0 494 344;" xml:space="preserve">
<style type="text/css">
	.st0{fill:#EEEEEE;}
</style>
<path class="st0" d="M18.8,80.1L26,53.5H0v-4.4h27.2l5.5-20.7H5.5v-4.4H34L40.5,0l4.2,1.1l-6.2,23.1h20.9L65.8,0L70,1.2l-6.1,23
	h27.8l0.1,4.4H62.7l-5.5,20.7h29.1l-0.1,4.4H56.1l-7.3,27.6l-4.3-1.1l7.1-26.5h-21l-7.5,27.6L18.8,80.1z M52.8,49.2l5.4-20.7H37.3
	l-5.7,20.7L52.8,49.2z"/>
<path class="st0" d="M97.7,41.1c0-25,20.8-40.9,53.5-40.9c24.9,0,44.1,10.8,49.3,27.9l-25.8,5.4c-2.6-8.2-11.5-13.3-22.8-13.3
	c-15.8,0-25.9,8.2-25.9,20.9S137.5,62,155.3,62c14,0,24.3-6,26.6-15.5l26.1,4.7c-4.1,18.8-24.8,30.8-53.4,30.8
	C119.8,82.1,97.7,66.9,97.7,41.1z"/>
<path class="st0" d="M242.7,2.2h33l38,77.9h-29.5l-6.1-13.6h-38.9l-6,13.6h-29.4L242.7,2.2z M272.6,50.5l-13.7-30.8h-0.2l-13.9,30.8
	L272.6,50.5z"/>
<path class="st0" d="M319.2,2.2H356l27,52.9h0.2l26.7-52.9h37.2v77.9h-26.8V31.2h-0.2l-24.4,48.9h-24.2l-25.3-48.9H346v48.9h-26.8
	V2.2z"/>
<path class="st0" d="M2.9,132.8h62.8c22.1,0,34.4,9.8,34.4,27.4c-0.1,17.2-12.4,26.7-34.6,26.7H31.4v23.9H2.9V132.8z M56.3,170.9
	c9.9,0,15.4-3.9,15.4-11.1s-5.4-11-15.3-11H31.4v22.1L56.3,170.9z"/>
<path class="st0" d="M107.5,132.8h28.2v77.9h-28.2V132.8z"/>
<path class="st0" d="M144.8,171.7c0-25,22.9-41.7,57-41.7s57.2,16.7,57.2,41.7s-22.9,41.7-57.1,41.7S144.8,196.8,144.8,171.7z
	 M230.5,171.7c0-13-11.6-21.7-28.7-21.7s-28.6,8.7-28.6,21.7s11.5,21.7,28.6,21.7S230.5,184.7,230.5,171.7z"/>
<path class="st0" d="M267.9,132.8H302l41.9,50.8h0.1v-50.8h26.8v77.9h-34.1l-42-51.5h-0.1v51.5h-26.8V132.8z"/>
<path class="st0" d="M379.9,171.7c0-25,22.9-41.7,57-41.7s57.2,16.7,57.2,41.7s-22.9,41.7-57.1,41.7S379.9,196.8,379.9,171.7z
	 M465.6,171.7c0-13-11.6-21.7-28.7-21.7s-28.6,8.7-28.6,21.7s11.5,21.7,28.6,21.7S465.6,184.7,465.6,171.7L465.6,171.7z"/>
<path class="st0" d="M1.1,302.4c0-25,20.8-40.9,53.5-40.9c24.9,0,44.1,10.8,49.3,27.9l-25.8,5.4c-2.7-8.1-11.5-13.3-22.8-13.3
	c-15.8,0-25.9,8.2-25.9,20.9s11.3,20.9,29.2,20.9c14,0,24.3-6,26.6-15.5l26.1,4.7c-4.1,18.8-24.8,30.8-53.4,30.8
	C23.2,343.3,1.1,328.1,1.1,302.4z"/>
<path class="st0" d="M116.7,302.4c0-25,22.8-41.7,57-41.7s57.1,16.7,57.1,41.7S208,344,173.7,344S116.7,327.4,116.7,302.4z
	 M202.4,302.4c0-13-11.6-21.7-28.7-21.7s-28.6,8.7-28.6,21.7s11.5,21.7,28.6,21.7S202.4,315.3,202.4,302.4z"/>
<path class="st0" d="M236.5,330l9.8-16.9c9,7.2,25.9,12.4,40.8,12.4c11,0,18-2.6,18-6.6c0-3.4-5-5.4-16.9-6.7l-14.4-1.6
	c-24.6-2.6-35.1-9.5-35.1-23.3c0-16.8,18.9-26.2,46.7-26.2c16.4,0,31.9,3.9,41.5,10.1l-8,16.3c-8.5-5.7-21.3-9.2-33.3-9.1
	c-11.1,0.1-19.3,2.7-19.4,6.9c0,2.9,4.4,4.8,14.4,5.8l14.5,1.5c26.3,2.7,37.7,9.9,37.7,24c0.1,16.1-18.4,27.1-47,27.1
	C267,343.6,247,338,236.5,330z"/>
<path class="st0" d="M340.3,263.4h82.2V281h-54.6v13.1h50.3v15.1h-50.3v14.5h55.7v17.6h-83.3V263.4z"/>
</svg>
