<?xml version="1.0" encoding="utf-8"?>
<!-- Generator: Adobe Illustrator 24.1.2, SVG Export Plug-In . SVG Version: 6.00 Build 0)  -->
<svg version="1.1" id="Capa_1" xmlns="http://www.w3.org/2000/svg" xmlns:xlink="http://www.w3.org/1999/xlink" x="0px" y="0px"
	 viewBox="0 0 484.5 484.5" style="enable-background:new 0 0 484.5 484.5;" xml:space="preserve">
<style type="text/css">
	.st0{fill:#FFFFFF;}
</style>
<g>
	<path class="st0" d="M224.8,303.3c6.3,1.5,12.5,2.1,18.7,2.1c6.1,0.1,12.4-0.6,18.7-2.1c33.9-8,57.8-37.5,57.8-74.4v-153
		c0-36.9-24-66.4-57.8-74.4c-6.3-1.5-12.5-2.1-18.7-2.1c-6.1-0.1-12.4,0.6-18.7,2.1C191,9.6,167,39.1,167,75.9v153
		C167,265.8,191,295.3,224.8,303.3z"/>
	<path class="st0" d="M398.7,228.9c-10.8,0-19.9,8-21.4,18.7C367.9,314,308.9,359,243.5,359S119,314,109.6,247.6
		c-1.5-10.7-10.6-18.7-21.4-18.7c-13.2,0-23.4,11.7-21.4,24.8c11.6,74.9,74.6,134.1,150.2,145.9c0.5,0.1,0.9,0.5,0.9,1.1v57.7
		c0,14.1,11.4,25.5,25.5,25.5s25.5-11.4,25.5-25.5v-57.7c0-0.5,0.4-1,0.9-1.1c75.6-11.9,138.6-71,150.2-145.9
		C422.1,240.7,411.9,228.9,398.7,228.9z"/>
</g>
</svg>
